<svg xmlns="http://www.w3.org/2000/svg" viewBox="0 0 24 24" width="32" height="32" fill="none">
  <g stroke="#4CAF50" stroke-width="2" fill="none" stroke-linecap="round" stroke-linejoin="round">
    <path d="M8.5 16C8.5 14.5109 9.79145 13.2195 11.2806 13.2195C11.6673 13.2195 12.0353 13.3646 12.3246 13.6539C12.614 13.9433 12.7591 14.3113 12.7591 14.698V20.5"/>
    <path d="M7.31841 19.1866L4.33579 22.1693C3.29553 23.2095 1.28808 23.2095 0.24782 22.1693C-0.791437 21.1283 -0.791437 19.1209 0.24782 18.0806L3.23042 15.0979"/>
    <path d="M16.5 8.5C16.5 10.6103 14.5607 12.5496 12.4504 12.5496C12.0637 12.5496 11.6957 12.4045 11.4064 12.1151C11.117 11.8257 10.9719 11.4577 10.9719 11.071V5.26843"/>
    <path d="M17.5616 6.49904L20.5443 3.51642C21.5845 2.47616 23.5919 2.47616 24.6322 3.51642C25.6725 4.55668 25.6725 6.56412 24.6322 7.60438L21.6496 10.587"/>
    <path d="M13.135 11.135C15.0352 13.0352 15.0352 16.9648 13.135 18.865C11.2348 20.7652 7.26522 20.7652 5.365 18.865C3.46478 16.9648 3.46478 13.0352 5.365 11.135C7.26522 9.23478 11.2348 9.23478 13.135 11.135Z"/>
  </g>
</svg>
